<svg width="220" height="52" viewBox="0 0 220 52" fill="none" xmlns="http://www.w3.org/2000/svg">
    <path d="M22 3L38 9.5V21C38 31.5 31 39.5 22 44C13 39.5 6 31.5 6 21V9.5L22 3Z" fill="#F97316"/>

    <path d="M13 23C13 17.477 17.029 13 22 13C26.971 13 31 17.477 31 23V26H27V23C27 20.239 24.761 18 22 18C19.239 18 17 20.239 17 23V26H13V23Z" fill="white"/>

    <rect x="11" y="24" width="5" height="9" rx="2" fill="white"/>
    <rect x="28" y="24" width="5" height="9" rx="2" fill="white"/>

    <text x="50" y="22"
          font-family="Arial, Helvetica, sans-serif"
          font-size="16"
          font-weight="700"
          fill="#111827">
        CRM SECOURS
    </text>

    <text x="50" y="39"
          font-family="Arial, Helvetica, sans-serif"
          font-size="10"
          font-weight="500"
          fill="#6B7280">
        TCC Mali — Continuité de service
    </text>
</svg>
